<?xml version="1.0" standalone="no"?>
<!DOCTYPE svg PUBLIC "-//W3C//DTD SVG 20010904//EN"
 "http://www.w3.org/TR/2001/REC-SVG-20010904/DTD/svg10.dtd">
<svg version="1.0" xmlns="http://www.w3.org/2000/svg"
 width="320.000000pt" height="300.000000pt" viewBox="0 0 320.000000 300.000000"
 preserveAspectRatio="xMidYMid meet">
<metadata>
Created by potrace 1.12, written by Peter Selinger 2001-2015
</metadata>
<g transform="translate(0.000000,300.000000) scale(0.100000,-0.100000)"
fill="#000000" stroke="none">
<path d="M703 2620 c-71 -43 -68 -8 -70 -770 -2 -377 -3 -687 -3 -690 -3 -31
-38 105 -214 835 -39 162 -38 165 51 165 l53 0 0 45 c0 40 -3 45 -26 51 -41
10 -134 -5 -165 -27 -63 -45 -67 -19 127 -870 97 -426 183 -787 193 -804 9
-16 32 -40 51 -52 l33 -23 1008 0 1008 0 35 31 c20 17 40 47 46 67 14 51 14
1913 0 1964 -6 20 -26 50 -46 67 l-35 31 -1007 0 c-981 0 -1008 -1 -1039 -20z
m2027 -106 c13 -34 13 -1874 0 -1908 l-10 -26 -978 0 c-747 0 -981 3 -990 12
-17 17 -17 1919 0 1936 9 9 243 12 990 12 l978 0 10 -26z"/>
<path d="M911 2356 c-8 -9 -11 -91 -9 -277 l3 -264 830 0 830 0 3 264 c2 186
-1 268 -9 277 -10 12 -147 14 -824 14 -677 0 -814 -2 -824 -14z m1378 -97 c35
-12 35 -13 21 -39 -9 -16 -18 -18 -58 -13 -36 4 -51 1 -61 -10 -21 -26 -4 -52
50 -78 92 -43 116 -109 61 -170 -23 -25 -38 -32 -78 -36 -27 -3 -62 0 -77 6
-23 9 -28 16 -25 39 2 19 8 26 18 22 8 -2 38 -4 65 -5 49 0 50 1 53 32 3 30
-1 34 -50 59 -64 31 -87 59 -88 101 0 75 85 121 169 92z m-1003 -109 l69 -109
5 107 c5 106 5 107 30 107 l25 0 3 -167 c2 -161 2 -167 -18 -173 -29 -9 -48
10 -111 113 -84 139 -79 137 -72 35 7 -102 1 -138 -23 -147 -37 -14 -44 10
-44 164 0 82 3 155 6 164 4 9 18 16 34 16 25 0 36 -13 96 -110z m381 94 c9
-25 -24 -44 -79 -44 l-48 0 0 -40 0 -40 60 0 c57 0 60 -1 60 -25 0 -24 -3 -25
-60 -25 l-60 0 0 -50 0 -50 65 0 c69 0 90 -15 65 -45 -16 -19 -170 -21 -188
-3 -13 13 -18 291 -6 322 9 24 182 23 191 0z m92 -21 c6 -21 19 -73 29 -117
l18 -78 30 113 c29 113 30 114 61 117 36 4 36 3 70 -150 l17 -76 31 111 c28
106 31 112 58 115 36 4 36 -6 -12 -179 -40 -142 -53 -169 -77 -169 -26 0 -40
29 -64 129 l-24 103 -27 -102 c-34 -125 -49 -146 -87 -121 -15 9 -95 309 -87
329 2 6 16 12 29 12 21 0 27 -7 35 -37z"/>
<path d="M922 1558 l3 -53 344 -3 c370 -2 361 -4 361 50 0 61 21 58 -362 58
l-349 0 3 -52z"/>
<path d="M1847 1603 c-10 -9 -8 -75 1 -91 7 -9 84 -12 353 -10 l344 3 0 50 0
50 -346 3 c-190 1 -348 -1 -352 -5z"/>
<path d="M924 1276 c-3 -7 -4 -33 -2 -57 l3 -44 339 -3 c242 -2 343 1 352 9
17 14 18 81 2 97 -19 19 -687 17 -694 -2z"/>
<path d="M1852 1278 c-7 -7 -12 -28 -12 -48 0 -20 5 -41 12 -48 9 -9 98 -12
339 -12 180 0 334 3 343 6 23 9 23 99 0 108 -9 3 -163 6 -343 6 -241 0 -330
-3 -339 -12z"/>
<path d="M927 953 c-4 -3 -7 -28 -7 -55 l0 -48 349 0 c379 0 361 -3 361 55 0
58 18 55 -354 55 -189 0 -346 -3 -349 -7z"/>
<path d="M1844 936 c-3 -13 -4 -37 -2 -52 l3 -29 350 0 350 0 0 50 0 50 -347
3 -348 2 -6 -24z"/>
</g>
</svg>
